PathFileType	4	(X/Y/Z)
DataRate	CameraRate	NumFrames	NumMarkers	Units	OrigDataRate	OrigDataStartFrame	OrigNumFrames	
	120.0	120.0	9	39	mm	120.0	58	231
Frame#	Time	midhip	hip_r	hip_l	knee_r	knee_l	ankle_r	ankle_l	midasis	asis_r	asis_l	psis_r	psis_l	epicondLat_r	epicondLat_l	epicondMed_r	epicondMed_l	malleolusLat_r	malleolusLat_l	malleolusMedv_r	malleolusMedv_l	heel_r	heel_l	sternalnotch	xyphoidprocess	neck	subclavicle_r	subclavicle_l	toe_r	toe_l	thighwand_r	thighwand_l	upperleg1_r	upperleg1_l	upperleg2_r	upperleg2_l	shankwand_r	shankwand_l	lowerleg1_r	lowerleg1_l
	X1	Y1	Z1	X2	Y2	Z2	X3	Y3	Z3	X4	Y4	Z4	X5	Y5	Z5	X6	Y6	Z6	X7	Y7	Z7	X8	Y8	Z8	X9	Y9	Z9	X10	Y10	Z10	X11	Y11	Z11	X12	Y12	Z12	X13	Y13	Z13	X14	Y14	Z14	X15	Y15	Z15	X16	Y16	Z16	X17	Y17	Z17	X18	Y18	Z18	X19	Y19	Z19	X20	Y20	Z20	X21	Y21	Z21	X22	Y22	Z22	X23	Y23	Z23	X24	Y24	Z24	X25	Y25	Z25	X26	Y26	Z26	X27	Y27	Z27	X28	Y28	Z28	X29	Y29	Z29	X30	Y30	Z30	X31	Y31	Z31	X32	Y32	Z32	X33	Y33	Z33	X34	Y34	Z34	X35	Y35	Z35	X36	Y36	Z36	X37	Y37	Z37	X38	Y38	Z38	X39	Y39	Z39

	58	0.48333	1403.332	635.519	-342.088	1418.592	641.600	-287.248	1414.237	644.569	-404.575	1405.600	341.433	-265.454	1415.734	342.063	-414.703	1384.533	54.495	-243.995	1403.054	55.646	-431.134	1480.731	683.844	-347.267	1483.975	681.633	-259.872	1477.488	686.056	-434.662	1360.920	752.411	-300.328	1357.886	752.062	-385.388	1405.885	344.752	-219.575	1407.364	343.603	-461.942	1403.116	338.138	-313.272	1420.882	337.819	-371.193	1378.927	57.368	-211.093	1389.335	57.939	-460.507	1392.713	53.597	-270.585	1412.315	52.733	-399.474	1346.219	38.354	-258.883	1351.960	38.052	-420.893	1442.973	1020.391	-335.107	1534.432	911.675	-335.934	1364.562	1037.714	-344.168	1460.604	1014.679	-297.597	1462.946	1013.089	-386.876	1475.673	41.282	-228.318	1488.564	38.980	-458.676	1526.272	429.493	-300.760	1463.187	422.919	-517.871	1454.340	483.880	-250.021	1460.194	482.556	-435.430	1446.188	397.841	-246.064	1465.492	399.449	-421.293	1407.993	146.584	-148.605	1503.027	161.739	-414.888	1399.135	200.984	-214.211	1438.709	218.715	-425.654
	59	0.49167	1403.653	635.520	-342.063	1418.954	641.579	-287.229	1414.572	644.555	-404.554	1405.737	341.412	-265.470	1415.895	342.033	-414.678	1384.559	54.478	-244.010	1403.080	55.629	-431.133	1481.089	683.811	-347.261	1484.353	681.595	-259.880	1477.826	686.028	-434.641	1361.241	752.435	-300.329	1358.237	752.078	-385.366	1406.017	344.725	-219.590	1407.515	343.577	-461.916	1403.622	337.634	-313.257	1421.067	337.688	-371.187	1378.948	57.353	-211.109	1389.354	57.930	-460.503	1392.750	53.561	-270.594	1412.361	52.712	-399.483	1346.226	38.372	-258.894	1351.968	38.060	-420.893	1443.134	1020.275	-335.116	1534.538	911.512	-335.969	1364.726	1037.645	-344.197	1460.749	1014.532	-297.623	1463.121	1012.991	-386.860	1475.695	41.264	-228.321	1488.579	38.954	-458.682	1526.483	429.350	-300.762	1463.408	422.855	-517.837	1454.180	483.651	-250.219	1460.433	482.444	-435.356	1446.351	397.689	-246.099	1465.701	399.322	-421.256	1408.036	146.558	-148.611	1503.112	161.633	-414.850	1399.290	200.926	-214.234	1438.820	218.569	-425.652
	60	0.50000	1403.965	635.525	-342.038	1419.299	641.566	-287.210	1414.902	644.546	-404.535	1405.880	341.404	-265.477	1416.060	342.013	-414.646	1384.585	54.468	-244.015	1403.104	55.619	-431.129	1481.436	683.786	-347.249	1484.710	681.567	-259.879	1478.162	686.005	-434.619	1361.554	752.466	-300.326	1358.567	752.096	-385.340	1406.156	344.714	-219.597	1407.668	343.559	-461.881	1403.127	338.203	-313.322	1421.335	337.515	-371.240	1378.972	57.346	-211.114	1389.372	57.930	-460.495	1392.792	53.542	-270.568	1412.445	52.683	-399.498	1346.233	38.397	-258.903	1351.977	38.075	-420.890	1443.282	1020.139	-335.105	1534.542	911.255	-335.981	1364.463	1037.725	-344.310	1460.874	1014.351	-297.636	1463.280	1012.857	-386.817	1475.717	41.251	-228.317	1488.595	38.941	-458.683	1526.684	429.222	-300.751	1463.655	422.802	-517.803	1455.180	483.820	-250.069	1460.676	482.332	-435.249	1446.526	397.491	-246.108	1465.955	399.228	-421.247	1408.082	146.539	-148.608	1503.197	161.540	-414.808	1399.469	200.891	-214.253	1438.924	218.412	-425.606
	61	0.50833	1404.270	635.533	-342.014	1419.619	641.562	-287.192	1415.229	644.541	-404.518	1406.019	341.413	-265.476	1416.221	342.003	-414.610	1384.604	54.467	-244.011	1403.121	55.617	-431.122	1481.766	683.772	-347.228	1485.034	681.554	-259.863	1478.497	685.990	-434.594	1361.861	752.497	-300.319	1358.870	752.113	-385.317	1406.294	344.720	-219.596	1407.817	343.552	-461.843	1402.686	338.753	-313.411	1421.600	337.410	-371.308	1378.991	57.347	-211.111	1389.383	57.939	-460.484	1392.822	53.544	-270.563	1412.508	52.657	-399.507	1346.246	38.420	-258.907	1351.986	38.094	-420.885	1443.429	1020.018	-335.112	1534.569	911.033	-335.966	1363.787	1037.899	-344.521	1461.012	1014.213	-297.685	1463.426	1012.710	-386.776	1475.732	41.246	-228.306	1488.608	38.943	-458.681	1526.865	429.117	-300.719	1463.907	422.762	-517.772	1456.049	483.980	-249.894	1460.934	482.264	-435.179	1446.657	397.323	-246.116	1466.213	399.196	-421.265	1408.123	146.529	-148.597	1503.274	161.468	-414.770	1399.620	200.877	-214.264	1439.014	218.320	-425.574
	62	0.51667	1404.572	635.538	-341.994	1419.916	641.567	-287.177	1415.556	644.538	-404.504	1406.145	341.433	-265.469	1416.374	342.002	-414.577	1384.612	54.475	-244.006	1403.126	55.623	-431.114	1482.079	683.770	-347.201	1485.327	681.557	-259.833	1478.832	685.983	-434.568	1362.163	752.519	-300.310	1359.154	752.122	-385.299	1406.422	344.739	-219.589	1407.960	343.552	-461.808	1402.749	338.738	-313.440	1421.769	337.373	-371.370	1379.001	57.356	-211.105	1389.382	57.954	-460.473	1392.846	53.572	-270.574	1412.515	52.652	-399.497	1346.263	38.435	-258.905	1351.989	38.110	-420.877	1443.578	1019.907	-335.152	1534.710	910.915	-335.933	1363.536	1037.887	-344.656	1461.157	1014.122	-297.764	1463.578	1012.569	-386.766	1475.737	41.250	-228.293	1488.614	38.961	-458.680	1527.019	429.038	-300.666	1464.131	422.733	-517.742	1456.173	483.909	-249.828	1461.189	482.244	-435.128	1446.721	397.239	-246.094	1466.417	399.179	-421.281	1408.153	146.531	-148.583	1503.337	161.424	-414.743	1399.707	200.884	-214.250	1439.099	218.322	-425.554
	63	0.52500	1404.882	635.537	-341.980	1420.200	641.575	-287.164	1415.882	644.537	-404.492	1406.251	341.459	-265.454	1416.514	342.007	-414.549	1384.604	54.491	-244.003	1403.117	55.634	-431.106	1482.381	683.779	-347.168	1485.596	681.574	-259.790	1479.165	685.985	-434.546	1362.457	752.528	-300.297	1359.434	752.117	-385.284	1406.534	344.765	-219.574	1408.092	343.560	-461.779	1402.761	338.747	-313.390	1421.887	337.377	-371.418	1378.998	57.374	-211.101	1389.369	57.975	-460.462	1392.841	53.617	-270.550	1412.466	52.679	-399.465	1346.288	38.438	-258.900	1351.986	38.118	-420.869	1443.741	1019.802	-335.201	1534.886	910.820	-335.825	1364.172	1037.652	-344.549	1461.293	1014.048	-297.843	1463.780	1012.426	-386.745	1475.728	41.261	-228.282	1488.611	38.988	-458.677	1527.148	428.979	-300.598	1464.314	422.711	-517.716	1456.212	483.844	-249.724	1461.433	482.265	-435.089	1446.730	397.258	-246.014	1466.587	399.162	-421.293	1408.173	146.542	-148.568	1503.385	161.409	-414.731	1399.723	200.929	-214.199	1439.156	218.386	-425.518
	64	0.53333	1405.200	635.527	-341.971	1420.473	641.585	-287.149	1416.203	644.536	-404.479	1406.337	341.489	-265.432	1416.643	342.015	-414.525	1384.581	54.515	-243.999	1403.097	55.649	-431.096	1482.671	683.795	-347.131	1485.852	681.597	-259.734	1479.490	685.994	-434.527	1362.744	752.524	-300.281	1359.727	752.094	-385.270	1406.627	344.795	-219.552	1408.217	343.571	-461.754	1402.700	338.807	-313.310	1421.967	337.435	-371.444	1378.981	57.397	-211.097	1389.347	57.998	-460.450	1392.785	53.663	-270.520	1412.390	52.715	-399.428	1346.317	38.432	-258.894	1351.979	38.118	-420.860	1443.927	1019.719	-335.235	1535.092	910.752	-335.601	1365.315	1037.314	-344.278	1461.429	1014.010	-297.907	1464.039	1012.287	-386.679	1475.711	41.277	-228.273	1488.600	39.019	-458.673	1527.255	428.931	-300.521	1464.462	422.693	-517.692	1456.223	483.827	-249.630	1461.663	482.300	-435.080	1446.677	397.337	-245.916	1466.726	399.181	-421.309	1408.185	146.561	-148.550	1503.424	161.417	-414.732	1399.666	200.985	-214.135	1439.195	218.515	-425.492
	65	0.54167	1405.518	635.510	-341.966	1420.736	641.591	-287.127	1416.510	644.535	-404.459	1406.408	341.516	-265.406	1416.765	342.021	-414.501	1384.551	54.540	-243.996	1403.072	55.663	-431.086	1482.950	683.809	-347.087	1486.099	681.615	-259.664	1479.801	686.002	-434.510	1363.022	752.513	-300.264	1360.040	752.058	-385.256	1406.707	344.823	-219.526	1408.338	343.582	-461.729	1402.651	338.892	-313.310	1422.068	337.510	-371.467	1378.957	57.421	-211.092	1389.323	58.020	-460.440	1392.718	53.710	-270.531	1412.305	52.728	-399.397	1346.347	38.423	-258.887	1351.969	38.113	-420.850	1444.119	1019.645	-335.276	1535.357	910.739	-335.430	1366.028	1037.054	-344.112	1461.581	1013.981	-297.988	1464.298	1012.181	-386.623	1475.692	41.294	-228.262	1488.585	39.046	-458.669	1527.348	428.887	-300.444	1464.583	422.676	-517.667	1456.239	483.833	-249.575	1461.860	482.342	-435.110	1446.616	397.412	-245.873	1466.859	399.226	-421.347	1408.194	146.583	-148.530	1503.462	161.430	-414.737	1399.576	201.025	-214.093	1439.266	218.677	-425.498
	66	0.55000	1405.823	635.488	-341.960	1420.993	641.589	-287.097	1416.798	644.530	-404.430	1406.471	341.537	-265.380	1416.886	342.021	-414.474	1384.524	54.562	-243.996	1403.050	55.671	-431.076	1483.220	683.809	-347.042	1486.346	681.617	-259.590	1480.094	686.002	-434.493	1363.292	752.500	-300.247	1360.371	752.016	-385.246	1406.778	344.843	-219.500	1408.461	343.587	-461.703	1402.651	338.947	-313.317	1422.238	337.570	-371.472	1378.936	57.442	-211.091	1389.303	58.037	-460.430	1392.692	53.762	-270.541	1412.226	52.730	-399.367	1346.376	38.413	-258.880	1351.963	38.106	-420.841	1444.292	1019.561	-335.310	1535.587	910.702	-335.360	1366.281	1036.906	-344.063	1461.739	1013.924	-298.072	1464.500	1012.082	-386.579	1475.678	41.307	-228.251	1488.573	39.061	-458.666	1527.439	428.836	-300.379	1464.691	422.656	-517.641	1456.279	483.826	-249.540	1462.045	482.397	-435.141	1446.602	397.467	-245.846	1467.020	399.258	-421.380	1408.206	146.603	-148.511	1503.506	161.433	-414.741	1399.521	201.062	-214.059	1439.365	218.813	-425.501
